<svg xmlns="http://www.w3.org/2000/svg" viewBox="0 0 160 160" fill="none" role="img">
  <title>Emblema Incendio</title>
  <desc>Emblema del rango Incendio: dos llamas, esquinas, brillo y aura roja.</desc>
  <defs>
    <filter id="incendio-blur" x="-40%" y="-40%" width="180%" height="180%"><feGaussianBlur stdDeviation="7.5"/></filter><pattern id="incendio-tone" width="6" height="6" patternUnits="userSpaceOnUse"><circle cx="1.4" cy="1.4" r="1.25" fill="#05060A"/></pattern>
  </defs>
  <circle cx="80" cy="80" r="52" fill="#FF2D00" opacity="0.8" filter="url(#incendio-blur)"/>
  
  <circle cx="80" cy="80" r="58" fill="#07080D"/>
  <circle cx="80" cy="80" r="58" fill="url(#incendio-tone)" opacity="0.55"/>
  <circle cx="80" cy="80" r="68" fill="none" stroke="#FF2D00" stroke-width="5" stroke-dasharray="197.6 16.0 197.6 16.0" transform="rotate(-50 80 80)"/>
  <circle cx="80" cy="80" r="58" fill="none" stroke="#F4F1EA" stroke-opacity="0.28" stroke-width="1.5"/>
  
    <path d="M46 62 V46 H62" fill="none" stroke="#FF2D00" stroke-width="4" stroke-linecap="square"/>
    <path d="M114 62 V46 H98" fill="none" stroke="#FF2D00" stroke-width="4" stroke-linecap="square"/>
    <path d="M46 98 V114 H62" fill="none" stroke="#FF2D00" stroke-width="4" stroke-linecap="square"/>
    <path d="M114 98 V114 H98" fill="none" stroke="#FF2D00" stroke-width="4" stroke-linecap="square"/>
    <path d="M28 58 A 58 58 0 0 1 102 28" fill="none" stroke="#fff" stroke-opacity="0.55" stroke-width="3" stroke-linecap="round"/>
  
        <path d="M 70.0 48.6 C 74.7 64.2 93.4 72.0 98.1 89.1 C 104.3 107.8 88.7 121.9 77.8 128.1 C 73.1 131.2 71.6 132.8 70.0 134.4 C 68.4 132.8 66.9 131.2 62.2 128.1 C 51.3 121.9 35.7 107.8 41.9 89.1 C 46.6 72.0 65.3 64.2 70.0 48.6 Z" fill="#FF2D00"/>
        <path d="M 70.0 88.5 C 72.2 95.1 78.8 98.4 79.9 105.0 C 82.1 112.7 75.5 118.2 70.0 121.5 C 64.5 118.2 57.9 112.7 60.1 105.0 C 61.2 98.4 67.8 95.1 70.0 88.5 Z" fill="#FFC53D"/>
        <path d="M 108.0 49.8 C 110.5 58.2 120.6 62.4 123.1 71.7 C 126.5 81.8 118.1 89.3 112.2 92.7 C 109.7 94.4 108.8 95.2 108.0 96.0 C 107.2 95.2 106.3 94.4 103.8 92.7 C 97.9 89.3 89.5 81.8 92.9 71.7 C 95.4 62.4 105.5 58.2 108.0 49.8 Z" fill="#FF6A1A"/>
        <circle cx="40" cy="70" r="3.2" fill="#FFC53D"/>
        <circle cx="118" cy="112" r="2.6" fill="#FFC53D"/>
        <circle cx="50" cy="46" r="2" fill="#FF8A3D"/>
</svg>
