<svg xmlns="http://www.w3.org/2000/svg" viewBox="0 0 160 160" fill="none" role="img">
  <title>Emblema Mítico</title>
  <desc>Emblema del rango Mítico: hexágono partido, doble anillo, oro y azul.</desc>
  <defs>
    <filter id="mitico-blur" x="-40%" y="-40%" width="180%" height="180%"><feGaussianBlur stdDeviation="10"/></filter><pattern id="mitico-tone" width="6" height="6" patternUnits="userSpaceOnUse"><circle cx="1.4" cy="1.4" r="1.25" fill="#05060A"/></pattern><linearGradient id="mitico-split" x1="0" y1="0" x2="1" y2="1"><stop offset="0" stop-color="#3B82FF"/><stop offset="0.5" stop-color="#FFC53D"/><stop offset="1" stop-color="#FF6A1A"/></linearGradient>
  </defs>
  <circle cx="80" cy="80" r="52" fill="#FFC53D" opacity="0.94" filter="url(#mitico-blur)"/>
  <circle cx="80" cy="80" r="46" fill="#9EBEFF" opacity="0.45" filter="url(#mitico-blur)"/>
  <circle cx="80" cy="80" r="58" fill="#07080D"/>
  <circle cx="80" cy="80" r="58" fill="url(#mitico-tone)" opacity="0.55"/>
  <circle cx="80" cy="80" r="68" fill="none" stroke="#FFC53D" stroke-width="5" stroke-dasharray="197.6 16.0 197.6 16.0" transform="rotate(-50 80 80)"/>
  <circle cx="80" cy="80" r="58" fill="none" stroke="#F4F1EA" stroke-opacity="0.28" stroke-width="1.5"/>
  
    <path d="M46 62 V46 H62" fill="none" stroke="#FFC53D" stroke-width="4" stroke-linecap="square"/>
    <path d="M114 62 V46 H98" fill="none" stroke="#FFC53D" stroke-width="4" stroke-linecap="square"/>
    <path d="M46 98 V114 H62" fill="none" stroke="#FFC53D" stroke-width="4" stroke-linecap="square"/>
    <path d="M114 98 V114 H98" fill="none" stroke="#FFC53D" stroke-width="4" stroke-linecap="square"/>
    <path d="M28 58 A 58 58 0 0 1 102 28" fill="none" stroke="#fff" stroke-opacity="0.55" stroke-width="3" stroke-linecap="round"/><path d="M24 96 A 70 70 0 0 1 96 22" fill="none" stroke="#9EBEFF" stroke-width="3" opacity="0.9"/><polygon points="124.00,102.00 125.41,106.59 130.00,108.00 125.41,109.41 124.00,114.00 122.59,109.41 118.00,108.00 122.59,106.59" fill="#9EBEFF"/><circle cx="80" cy="80" r="62" fill="none" stroke="#9EBEFF" stroke-width="2"/><circle cx="80" cy="80" r="72" fill="none" stroke="#FFC53D" stroke-width="2" opacity="0.85"/><circle cx="80" cy="80" r="74" fill="none" stroke="#9EBEFF" stroke-width="2.5"/>
  
        <polygon points="80,40 114,60 114,100 80,120 46,100 46,60" fill="none" stroke="url(#mitico-split)" stroke-width="7" stroke-linejoin="round"/>
        <polygon points="80.00,64.00 84.24,75.76 96.00,80.00 84.24,84.24 80.00,96.00 75.76,84.24 64.00,80.00 75.76,75.76" fill="#FFC53D"/>
</svg>
