<svg xmlns="http://www.w3.org/2000/svg" viewBox="0 0 160 160" fill="none" role="img">
  <title>Emblema Nova</title>
  <desc>Emblema del rango Nova: estrella de ocho puntas y doble borde dorado.</desc>
  <defs>
    <filter id="nova-blur" x="-40%" y="-40%" width="180%" height="180%"><feGaussianBlur stdDeviation="9"/></filter><pattern id="nova-tone" width="6" height="6" patternUnits="userSpaceOnUse"><circle cx="1.4" cy="1.4" r="1.25" fill="#05060A"/></pattern>
  </defs>
  <circle cx="80" cy="80" r="52" fill="#FFC53D" opacity="0.9" filter="url(#nova-blur)"/>
  
  <circle cx="80" cy="80" r="58" fill="#07080D"/>
  <circle cx="80" cy="80" r="58" fill="url(#nova-tone)" opacity="0.55"/>
  <circle cx="80" cy="80" r="68" fill="none" stroke="#FFC53D" stroke-width="5" stroke-dasharray="197.6 16.0 197.6 16.0" transform="rotate(-50 80 80)"/>
  <circle cx="80" cy="80" r="58" fill="none" stroke="#F4F1EA" stroke-opacity="0.28" stroke-width="1.5"/>
  
    <path d="M46 62 V46 H62" fill="none" stroke="#FFC53D" stroke-width="4" stroke-linecap="square"/>
    <path d="M114 62 V46 H98" fill="none" stroke="#FFC53D" stroke-width="4" stroke-linecap="square"/>
    <path d="M46 98 V114 H62" fill="none" stroke="#FFC53D" stroke-width="4" stroke-linecap="square"/>
    <path d="M114 98 V114 H98" fill="none" stroke="#FFC53D" stroke-width="4" stroke-linecap="square"/>
    <path d="M28 58 A 58 58 0 0 1 102 28" fill="none" stroke="#fff" stroke-opacity="0.55" stroke-width="3" stroke-linecap="round"/><path d="M24 96 A 70 70 0 0 1 96 22" fill="none" stroke="#FFF6D8" stroke-width="3" opacity="0.9"/><polygon points="124.00,102.00 125.41,106.59 130.00,108.00 125.41,109.41 124.00,114.00 122.59,109.41 118.00,108.00 122.59,106.59" fill="#FFF6D8"/><circle cx="80" cy="80" r="62" fill="none" stroke="#FFF6D8" stroke-width="2"/><circle cx="80" cy="80" r="72" fill="none" stroke="#FFC53D" stroke-width="2" opacity="0.85"/>
  
        <polygon points="80.00,34.00 86.89,63.37 112.53,47.47 96.63,73.11 126.00,80.00 96.63,86.89 112.53,112.53 86.89,96.63 80.00,126.00 73.11,96.63 47.47,112.53 63.37,86.89 34.00,80.00 63.37,73.11 47.47,47.47 73.11,63.37" fill="#FFC53D"/>
        <circle cx="80" cy="80" r="10" fill="#FFF6D8"/>
        <circle cx="80" cy="80" r="4" fill="#FFF8E8"/>
</svg>
