<svg xmlns="http://www.w3.org/2000/svg" viewBox="0 0 160 160" fill="none" role="img">
  <title>Emblema Tormenta</title>
  <desc>Emblema del rango Tormenta: tres arcos de viento, arco exterior y aura azul.</desc>
  <defs>
    <filter id="tormenta-blur" x="-40%" y="-40%" width="180%" height="180%"><feGaussianBlur stdDeviation="8"/></filter><pattern id="tormenta-tone" width="6" height="6" patternUnits="userSpaceOnUse"><circle cx="1.4" cy="1.4" r="1.25" fill="#05060A"/></pattern>
  </defs>
  <circle cx="80" cy="80" r="52" fill="#7AA2FF" opacity="0.82" filter="url(#tormenta-blur)"/>
  
  <circle cx="80" cy="80" r="58" fill="#07080D"/>
  <circle cx="80" cy="80" r="58" fill="url(#tormenta-tone)" opacity="0.55"/>
  <circle cx="80" cy="80" r="68" fill="none" stroke="#7AA2FF" stroke-width="5" stroke-dasharray="197.6 16.0 197.6 16.0" transform="rotate(-50 80 80)"/>
  <circle cx="80" cy="80" r="58" fill="none" stroke="#F4F1EA" stroke-opacity="0.28" stroke-width="1.5"/>
  
    <path d="M46 62 V46 H62" fill="none" stroke="#7AA2FF" stroke-width="4" stroke-linecap="square"/>
    <path d="M114 62 V46 H98" fill="none" stroke="#7AA2FF" stroke-width="4" stroke-linecap="square"/>
    <path d="M46 98 V114 H62" fill="none" stroke="#7AA2FF" stroke-width="4" stroke-linecap="square"/>
    <path d="M114 98 V114 H98" fill="none" stroke="#7AA2FF" stroke-width="4" stroke-linecap="square"/>
    <path d="M28 58 A 58 58 0 0 1 102 28" fill="none" stroke="#fff" stroke-opacity="0.55" stroke-width="3" stroke-linecap="round"/><path d="M24 96 A 70 70 0 0 1 96 22" fill="none" stroke="#D6E4FF" stroke-width="3" opacity="0.9"/>
  
        <g fill="none" stroke="#D6E4FF" stroke-width="6" stroke-linecap="round">
          <path d="M58 62a28 28 0 0 1 36-6"/>
          <path d="M42 96a46 46 0 0 1 70-22"/>
          <path d="M50 112a36 36 0 0 0 52 8"/>
        </g>
        <circle cx="80" cy="80" r="7" fill="#EAF1FF"/>
        <circle cx="80" cy="80" r="3" fill="#7AA2FF"/>
</svg>
