<svg xmlns="http://www.w3.org/2000/svg" viewBox="0 0 128 128" role="img" aria-labelledby="t d">
  <title id="t">Forja · Templado</title>
  <desc id="d">El trabajo repetido templa la fuerza.</desc>
  
  <circle cx="64" cy="64" r="42" fill="#FF6A1A" opacity="0.18"/>
  <polygon points="64.0,10.0 110.8,37.0 110.8,91.0 64.0,118.0 17.2,91.0 17.2,37.0" fill="#090B10" stroke="#E39B12" stroke-width="4" stroke-linejoin="round"/>
  <polygon points="64.0,20.0 102.1,42.0 102.1,86.0 64.0,108.0 25.9,86.0 25.9,42.0" fill="#141821" stroke="#FFC43A" stroke-width="2.25" stroke-linejoin="round" opacity="0.95"/>
  <path d="M 98.91 110.32 A 58.00 58.00 0 0 1 29.09 110.32" fill="none" stroke="#FFC43A" stroke-width="3.5" stroke-linecap="round"/>
  <path d="M40 70 H88 V78 H76 V88 H52 V78 H40 Z" fill="#FFC43A"/>
  <path d="M48 70 L56 52 H72 L80 70 Z" fill="#FFF6E4"/>
  <polygon points="46.0,53.0 49.5,58.0 46.0,63.0 42.5,58.0" fill="#FF6A1A"/>
  <polygon points="82.0,51.5 85.0,56.0 82.0,60.5 79.0,56.0" fill="#FF6A1A"/>
</svg>
